<?xml version="1.0" encoding="UTF-8" standalone="no" ?>
<!DOCTYPE svg PUBLIC "-//W3C//DTD SVG 1.1//EN" "http://www.w3.org/Graphics/SVG/1.1/DTD/svg11.dtd">
<svg xmlns="http://www.w3.org/2000/svg" xmlns:xlink="http://www.w3.org/1999/xlink" version="1.1" width="1080" height="1080" viewBox="0 0 1080 1080" xml:space="preserve">
<desc>Created with Fabric.js 5.2.4</desc>
<defs>
</defs>
<rect x="0" y="0" width="100%" height="100%" fill="transparent"></rect>
<g transform="matrix(1 0 0 1 540 540)" id="ee480c9b-792f-42a6-b666-3387f0124b2f"  >
<rect style="stroke: none; stroke-width: 1; stroke-dasharray: none; stroke-linecap: butt; stroke-dashoffset: 0; stroke-linejoin: miter; stroke-miterlimit: 4; fill: rgb(28,8,8); fill-rule: nonzero; opacity: 1; visibility: hidden;" vector-effect="non-scaling-stroke"  x="-540" y="-540" rx="0" ry="0" width="1080" height="1080" />
</g>
<g transform="matrix(1 0 0 1 540 540)" id="b1665ac2-2722-41ca-96d2-9cf22dce833b"  >
</g>
<g transform="matrix(15.36 0 0 15.12 540 540)" id="3c5a0662-c239-497a-806b-3f13c3355c39"  >
<rect style="stroke: rgb(255,255,255); stroke-width: 48; stroke-dasharray: none; stroke-linecap: butt; stroke-dashoffset: 0; stroke-linejoin: miter; stroke-miterlimit: 4; fill: rgb(54,54,54); fill-rule: nonzero; opacity: 1;" vector-effect="non-scaling-stroke"  x="-33.0835" y="-33.0835" rx="0" ry="0" width="66.167" height="66.167" />
</g>
<g transform="matrix(10.9 0 0 10.9 540 540)"  >
<g style="" vector-effect="non-scaling-stroke"   >
		<g transform="matrix(1 0 0 1 7.57 0)"  >
<polygon style="stroke: none; stroke-width: 1; stroke-dasharray: none; stroke-linecap: butt; stroke-dashoffset: 0; stroke-linejoin: miter; stroke-miterlimit: 4; fill: rgb(237,64,0); fill-rule: nonzero; opacity: 1;" vector-effect="non-scaling-stroke"  points="-22.23,-19.57 -22.23,-26.94 22.23,-26.94 22.23,26.94 -21.48,26.94 -21.48,21.07 -28.85,21.07 -28.85,30.62 -28.85,33.62 -25.16,33.62 25.91,33.62 29.6,33.62 29.6,30.62 29.6,-29.94 29.6,-33.62 25.91,-33.62 -25.91,-33.62 -29.6,-33.62 -29.6,-29.94 -29.6,-19.57 " />
</g>
		<g transform="matrix(1 0 0 1 -8.29 0)"  >
<polygon style="stroke: none; stroke-width: 1; stroke-dasharray: none; stroke-linecap: butt; stroke-dashoffset: 0; stroke-linejoin: miter; stroke-miterlimit: 4; fill: rgb(237,64,0); fill-rule: nonzero; opacity: 1;" vector-effect="non-scaling-stroke"  points="28.88,0 15.86,12 2.9,24 2.9,9.27 -28.88,9.27 -28.88,-10.1 2.9,-10.1 2.9,-24.01 15.86,-12 " />
</g>
</g>
</g>
</svg>